<svg width="20" height="20" viewBox="0 0 20 20" fill="none" xmlns="http://www.w3.org/2000/svg">
<mask id="mask0_1_123" style="mask-type:alpha" maskUnits="userSpaceOnUse" x="0" y="0" width="20" height="20">
<rect x="0.400024" y="0.400024" width="19.2" height="19.2" fill="#D9D9D9"/>
</mask>
<g mask="url(#mask0_1_123)">
<path d="M6.4001 9.2001C5.62676 9.2001 4.96676 8.92676 4.4201 8.3801C3.87343 7.83343 3.6001 7.17343 3.6001 6.4001C3.6001 5.62676 3.87343 4.96676 4.4201 4.4201C4.96676 3.87343 5.62676 3.6001 6.4001 3.6001C7.17343 3.6001 7.83343 3.87343 8.3801 4.4201C8.92676 4.96676 9.2001 5.62676 9.2001 6.4001C9.2001 7.17343 8.92676 7.83343 8.3801 8.3801C7.83343 8.92676 7.17343 9.2001 6.4001 9.2001ZM6.4001 7.6001C6.73343 7.6001 7.01676 7.48343 7.2501 7.2501C7.48343 7.01676 7.6001 6.73343 7.6001 6.4001C7.6001 6.06676 7.48343 5.78343 7.2501 5.5501C7.01676 5.31676 6.73343 5.2001 6.4001 5.2001C6.06676 5.2001 5.78343 5.31676 5.5501 5.5501C5.31676 5.78343 5.2001 6.06676 5.2001 6.4001C5.2001 6.73343 5.31676 7.01676 5.5501 7.2501C5.78343 7.48343 6.06676 7.6001 6.4001 7.6001ZM13.6001 16.4001C12.8268 16.4001 12.1668 16.1268 11.6201 15.5801C11.0734 15.0334 10.8001 14.3734 10.8001 13.6001C10.8001 12.8268 11.0734 12.1668 11.6201 11.6201C12.1668 11.0734 12.8268 10.8001 13.6001 10.8001C14.3734 10.8001 15.0334 11.0734 15.5801 11.6201C16.1268 12.1668 16.4001 12.8268 16.4001 13.6001C16.4001 14.3734 16.1268 15.0334 15.5801 15.5801C15.0334 16.1268 14.3734 16.4001 13.6001 16.4001ZM13.6001 14.8001C13.9334 14.8001 14.2168 14.6834 14.4501 14.4501C14.6834 14.2168 14.8001 13.9334 14.8001 13.6001C14.8001 13.2668 14.6834 12.9834 14.4501 12.7501C14.2168 12.5168 13.9334 12.4001 13.6001 12.4001C13.2668 12.4001 12.9834 12.5168 12.7501 12.7501C12.5168 12.9834 12.4001 13.2668 12.4001 13.6001C12.4001 13.9334 12.5168 14.2168 12.7501 14.4501C12.9834 14.6834 13.2668 14.8001 13.6001 14.8001ZM4.1601 15.8401C4.01343 15.6934 3.9401 15.5068 3.9401 15.2801C3.9401 15.0534 4.01343 14.8668 4.1601 14.7201L14.7201 4.1601C14.8668 4.01343 15.0534 3.9401 15.2801 3.9401C15.5068 3.9401 15.6934 4.01343 15.8401 4.1601C15.9868 4.30676 16.0601 4.49343 16.0601 4.7201C16.0601 4.94676 15.9868 5.13343 15.8401 5.2801L5.2801 15.8401C5.13343 15.9868 4.94676 16.0601 4.7201 16.0601C4.49343 16.0601 4.30676 15.9868 4.1601 15.8401Z" fill="white"/>
</g>
</svg>
